Coordinates
version=1
nRows=11
nColumns=36
inDegrees=yes

Units are S.I. units (second, meters, Newtons, ...)
If the header above contains a line with 'inDegrees', this indicates whether rotational values are in degrees (yes) or radians (no).

endheader
time	pelvis_tilt	pelvis_list	pelvis_rotation	pelvis_tx	pelvis_ty	pelvis_tz	hip_flexion_r	hip_adduction_r	hip_rotation_r	knee_angle_r	knee_angle_r_beta	ankle_angle_r	subtalar_angle_r	mtp_angle_r	hip_flexion_l	hip_adduction_l	hip_rotation_l	knee_angle_l	knee_angle_l_beta	ankle_angle_l	subtalar_angle_l	mtp_angle_l	lumbar_extension	lumbar_bending	lumbar_rotation	arm_flex_r	arm_add_r	arm_rot_r	elbow_flex_r	pro_sup_r	arm_flex_l	arm_add_l	arm_rot_l	elbow_flex_l	pro_sup_l
     12.88333330	    -14.94059729	      0.47452913	     -0.16570797	      0.27483936	      0.99191700	     -0.06757869	      8.13491177	     -3.34735659	     -1.95982907	      0.09899691	      0.00172782	      7.85863930	      3.88344861	     -7.49999987	      9.13514956	     -2.81615286	     -2.53916901	      2.68337319	      0.04683370	      3.27453160	     -4.46965096	     -7.49999987	     10.76974524	     -0.25042328	      1.95081145	      3.45462038	    -11.60061759	     45.46438074	     44.33700945	     68.54543446	      3.26194583	     -8.23261634	     37.44347503	     34.49179108	     67.47686492
     12.90000000	    -14.89829637	      0.58939409	     -0.39221035	      0.27486246	      0.99799953	     -0.06766594	      7.99678360	     -3.49770492	     -1.73919654	      0.09693970	      0.00169192	      7.70076041	      3.90523957	     -7.49999987	      8.66500596	     -2.65410774	     -2.63006912	      2.33967200	      0.04083498	      3.18086926	     -4.22274692	     -7.49999987	     11.07560064	     -0.25484640	      2.04867742	      3.55629454	    -11.91028159	     45.20127023	     43.60312893	     68.52018209	      2.96737269	     -8.34784776	     37.30640044	     33.62519179	     67.46251904
     12.91666670	    -14.68210096	      0.46705780	     -0.47975149	      0.26366755	      0.99677171	     -0.06164008	      7.79421643	     -3.34672095	     -1.67729371	      0.09854388	      0.00171992	      7.76677496	      3.89640011	     -7.49999987	      8.36970589	     -2.76094618	     -2.38100127	      2.26409198	      0.03951586	      3.07701741	     -4.79088178	     -7.49999987	     10.79130687	     -0.15227710	      2.11959758	      3.90404767	    -11.86043043	     44.14502269	     42.49740528	     68.01748412	      2.77325459	     -8.35977751	     36.24246962	     32.15973230	     67.03251537
     12.93333330	    -14.63961817	      0.50726700	     -0.54604950	      0.26321368	      0.99709840	     -0.06146382	      7.79683906	     -3.37067200	     -1.61062940	      0.09836198	      0.00171674	      7.87902401	      3.94047677	     -7.49999987	      8.28002446	     -2.73612939	     -2.34883933	      2.08081069	      0.03631700	      3.05313843	     -4.85550787	     -7.49999987	     10.71552353	     -0.26757498	      2.25504029	      3.99406790	    -11.75499344	     43.24935411	     41.36467285	     67.58386585	      2.78316565	     -8.51695062	     34.93712618	     30.65997558	     66.74720019
     12.95000000	    -14.56386011	      0.62024073	     -0.58485836	      0.27421202	      0.99176465	     -0.06685485	      7.64286897	     -3.53370840	     -1.61733185	      0.09705686	      0.00169396	      7.92451953	      3.97422077	     -7.49999987	      8.01932993	     -2.57488486	     -2.21340461	      1.90621526	      0.03326973	      3.24582151	     -4.89605305	     -7.49999987	     10.87774852	     -0.30910324	      2.39420978	      4.00993722	    -11.76259041	     42.35194553	     40.03433474	     66.99308526	      2.34005477	     -8.65137930	     33.57309947	     29.31299225	     66.44353016
     12.96666670	    -14.65175936	      0.72336057	     -0.66079472	      0.28215984	      0.98674145	     -0.05919990	      7.56108265	     -3.61540990	     -1.47452504	      0.09728620	      0.00169796	      8.06560792	      3.78042055	     -7.49999987	      7.91122020	     -2.48402270	     -2.34189110	      1.90772210	      0.03329603	      3.66170651	     -4.88098375	     -7.49999987	     11.42879834	     -0.45924945	      2.56617071	      3.56073421	    -11.78055892	     41.76763856	     39.01877564	     66.69258136	      1.76169388	     -9.13822125	     32.55372191	     28.55336415	     66.33533184
     12.98333330	    -14.84604390	      0.76328001	     -0.77907231	      0.28281843	      0.98624274	     -0.05920023	      7.62307942	     -3.62683143	     -1.35384418	      0.09637943	      0.00168214	      8.28599042	      3.82263586	     -7.49999987	      7.93056058	     -2.48618486	     -2.29279747	      1.95916872	      0.03419394	      4.09883744	     -5.15992768	     -7.49999987	     12.10369148	     -0.52953647	      2.41760287	      3.37526865	    -11.50585565	     40.83017066	     37.44002997	     68.89027896	      0.81306689	     -9.01226850	     27.74777388	     27.16608537	     73.28635563
     13.00000000	    -14.96482183	      0.78274308	     -0.90922129	      0.28269671	      0.98150254	     -0.05815292	      7.60433625	     -3.61207358	     -1.17229806	      0.09651540	      0.00168451	      8.45243922	      3.76097093	     -7.49999987	      7.89062117	     -2.51198340	     -2.27296187	      2.00375112	      0.03497205	      4.40245034	     -5.57724019	     -7.49999987	     12.60596582	     -0.61552506	      2.53389278	      2.91699330	    -11.36491337	     40.13404732	     36.23108034	     68.13306483	      0.56037998	     -9.37332487	     26.73500841	     26.52007761	     72.26430793
     13.01666670	    -15.17934599	      0.84431069	     -1.05896819	      0.28355547	      0.98117738	     -0.05838015	      7.72084463	     -3.63133542	     -0.93067386	      0.09585571	      0.00167300	      8.60190279	      3.69291073	     -7.49999987	      7.92489371	     -2.49907305	     -2.42412120	      2.01918365	      0.03524140	      4.63498883	     -5.54734728	     -7.49999987	     13.26579502	     -0.72223363	      2.64956737	      2.48611769	    -11.25609123	     39.61338433	     35.13437472	     67.95803546	      0.38484373	     -9.68221917	     25.94055739	     25.95140364	     72.19388177
     13.03333330	    -15.38504412	      0.81205335	     -1.15087669	      0.28379446	      0.98210767	     -0.05837519	      7.84448987	     -3.56918966	     -0.76568644	      0.09650256	      0.00168429	      8.72413426	      3.50964673	     -7.49999987	      8.15420933	     -2.58449653	     -2.51850474	      2.27514601	      0.03970879	      4.87083955	     -5.80895536	     -7.49999987	     13.81233496	     -0.74934452	      2.66422312	      1.90689032	    -11.19895892	     38.89821715	     34.14837169	     67.76253934	      0.19480340	    -10.04807728	     24.97830481	     25.77064205	     72.12534147
     13.05000000	    -15.70268660	      1.00995491	     -1.27742277	      0.29546706	      0.98272668	     -0.06427773	      8.02648931	     -3.76520128	     -0.70359705	      0.09344334	      0.00163089	      8.62293221	      3.49574148	     -7.49999987	      8.30190745	     -2.38613720	     -2.48767242	      2.25051596	      0.03927891	      5.00914151	     -5.86869995	     -7.49999987	     14.73206743	     -0.91770617	      2.89900034	      0.55864302	    -11.01180798	     36.18892203	     32.83207228	     70.97019707	     -0.29958665	     -9.96945394	     21.45315076	     25.15755891	     79.10419979
